<svg width="165" height="33" viewBox="0 0 165 33" fill="none" xmlns="http://www.w3.org/2000/svg">
<path d="M8.94367 3.96984H1.82524C0.821357 3.96984 0 3.14848 0 2.1446C0 1.14072 0.821357 0.36499 1.82524 0.36499H19.9407C20.9446 0.36499 21.7203 1.14072 21.7203 2.1446C21.7203 3.14848 20.9446 3.96984 19.9407 3.96984H12.8223V30.7096C12.8223 31.7591 11.9553 32.6717 10.8602 32.6717C9.81065 32.6717 8.94367 31.7591 8.94367 30.7096V3.96984V3.96984Z" fill="white"/>
<path d="M19.0737 20.6708C19.0737 13.9174 24.2757 8.57861 31.1203 8.57861C34.4514 8.57861 37.2349 9.85628 39.0145 11.499C39.4251 11.864 39.6989 12.366 39.6989 12.9136C39.6989 13.3699 39.562 13.7805 39.1057 14.2825L30.9834 24.0019C30.6184 24.4125 30.2077 24.5951 29.7057 24.5951C28.7019 24.5951 27.9718 23.9106 27.9718 22.9524C27.9718 22.5417 28.063 22.131 28.3824 21.8116L35.5009 13.4155C34.3145 12.4116 32.6261 11.9553 31.1203 11.9553C26.4659 11.9553 22.7698 15.7883 22.7698 20.6708C22.7698 25.5077 26.4203 29.3863 31.1203 29.3863C33.7213 29.3863 35.7747 28.2455 37.1892 26.6485C37.6912 26.1922 38.1018 25.8271 38.7407 25.8271C39.7902 25.8271 40.5659 26.5572 40.5659 27.5611C40.5659 27.9261 40.3378 28.4281 40.0183 28.7931C38.1018 31.0747 34.9533 32.763 31.1203 32.763C24.3213 32.763 19.0737 27.4242 19.0737 20.6708Z" fill="white"/>
<path d="M45.5854 18.4349C45.5854 12.5485 49.3272 8.57861 54.9854 8.57861C55.898 8.57861 56.6737 9.30871 56.6737 10.267C56.6737 11.1796 55.898 11.9553 54.9854 11.9553C51.6087 11.9553 49.2359 14.1912 49.2359 18.4349V30.8009C49.2359 31.8504 48.4146 32.6717 47.4107 32.6717C46.3612 32.6717 45.5854 31.8504 45.5854 30.8009V18.4349V18.4349Z" fill="white"/>
<path d="M59.8223 18.4349C59.8223 12.5485 63.564 8.57861 69.2222 8.57861C70.1349 8.57861 70.9106 9.30871 70.9106 10.267C70.9106 11.1796 70.1349 11.9553 69.2222 11.9553C65.8455 11.9553 63.4727 14.1912 63.4727 18.4349V30.8009C63.4727 31.8504 62.6514 32.6717 61.6475 32.6717C60.598 32.6717 59.8223 31.8504 59.8223 30.8009V18.4349Z" fill="white"/>
<path d="M93.2225 29.1125C91.0778 31.3941 88.1118 32.763 84.6895 32.763C77.9817 32.763 72.8711 27.4242 72.8711 20.6708C72.8711 13.9174 77.9817 8.57861 84.6895 8.57861C88.1118 8.57861 91.0778 9.99317 93.2225 12.2291V10.4951C93.2225 9.49123 94.0438 8.66987 95.0477 8.66987C96.0972 8.66987 96.8729 9.49123 96.8729 10.4951V30.8009C96.8729 31.8504 96.0972 32.6717 95.0477 32.6717C94.0438 32.6717 93.2225 31.8504 93.2225 30.8009V29.1125ZM93.2225 21.0359V20.3058C93.0399 15.5601 89.4351 11.9553 84.9176 11.9553C80.2633 11.9553 76.5672 15.7427 76.5672 20.6708C76.5672 25.599 80.2633 29.3863 84.9176 29.3863C89.4351 29.3863 93.0399 25.7815 93.2225 21.0359Z" fill="white"/>
<path d="M122.381 29.1125C120.236 31.3941 117.27 32.763 113.848 32.763C107.14 32.763 102.029 27.4242 102.029 20.6708C102.029 13.9174 107.14 8.57862 113.848 8.57862C117.27 8.57862 120.236 9.99318 122.381 12.2291V1.82524C122.381 0.821356 123.202 0 124.206 0C125.255 0 126.031 0.821356 126.031 1.82524V30.8009C126.031 31.8504 125.255 32.6718 124.206 32.6718C123.202 32.6718 122.381 31.8504 122.381 30.8009V29.1125ZM122.381 21.0359V20.3058C122.198 15.5602 118.593 11.9553 114.076 11.9553C109.422 11.9553 105.725 15.7427 105.725 20.6708C105.725 25.599 109.422 29.3863 114.076 29.3863C118.593 29.3863 122.198 25.7815 122.381 21.0359Z" fill="white"/>
<path d="M131.781 3.37664C131.781 2.09897 132.785 1.09509 134.062 1.09509C135.294 1.09509 136.344 2.09897 136.344 3.37664C136.344 4.60868 135.294 5.65819 134.062 5.65819C132.785 5.65819 131.781 4.60868 131.781 3.37664ZM132.237 10.4951C132.237 9.49118 133.013 8.66983 134.062 8.66983C135.066 8.66983 135.888 9.49118 135.888 10.4951V30.8008C135.888 31.8503 135.066 32.6717 134.062 32.6717C133.013 32.6717 132.237 31.8503 132.237 30.8008V10.4951Z" fill="white"/>
<path d="M161.349 29.1125C159.205 31.3941 156.239 32.763 152.816 32.763C146.109 32.763 140.998 27.4242 140.998 20.6708C140.998 13.9174 146.109 8.57861 152.816 8.57861C156.239 8.57861 159.205 9.99317 161.349 12.2291V10.4951C161.349 9.49123 162.171 8.66987 163.175 8.66987C164.224 8.66987 165 9.49123 165 10.4951V30.8009C165 31.8504 164.224 32.6717 163.175 32.6717C162.171 32.6717 161.349 31.8504 161.349 30.8009V29.1125ZM161.349 21.0359V20.3058C161.167 15.5601 157.562 11.9553 153.045 11.9553C148.39 11.9553 144.694 15.7427 144.694 20.6708C144.694 25.599 148.39 29.3863 153.045 29.3863C157.562 29.3863 161.167 25.7815 161.349 21.0359Z" fill="white"/>
</svg>
